<?xml version="1.0" standalone="no"?>
<!DOCTYPE svg PUBLIC "-//W3C//DTD SVG 20010904//EN"
 "http://www.w3.org/TR/2001/REC-SVG-20010904/DTD/svg10.dtd">
<svg version="1.0" xmlns="http://www.w3.org/2000/svg"
 width="260.000000pt" height="260.000000pt" viewBox="0 0 260.000000 260.000000"
 preserveAspectRatio="xMidYMid meet">
<metadata>
Created by potrace 1.11, written by Peter Selinger 2001-2013
</metadata>
<g transform="translate(0.000000,260.000000) scale(0.100000,-0.100000)"
fill="#000000" stroke="none">
<path d="M0 1300 l0 -1300 1300 0 1300 0 0 1300 0 1300 -1300 0 -1300 0 0
-1300z m1355 819 c83 -15 149 -52 223 -123 178 -170 292 -502 292 -849 0 -148
-19 -235 -76 -354 -119 -249 -365 -379 -608 -323 -126 28 -274 141 -349 266
-20 33 -51 103 -69 155 -32 92 -32 98 -32 259 1 496 218 913 504 969 25 5 48
9 51 10 3 1 32 -4 64 -10z"/>
</g>
</svg>
